<svg id="Capa_1" data-name="Capa 1" xmlns="http://www.w3.org/2000/svg" viewBox="0 0 64 64"><defs><style>.cls-1{fill:#b83731;}</style></defs><title>check</title><polygon class="cls-1" points="25.71 46 49.71 21.85 48.29 20.37 25 43.62 13.71 32.31 12.29 33.86 24.29 46 25.71 46"/><path class="cls-1" d="M32,64h0A32,32,0,0,0,54.63,9.37,31.82,31.82,0,0,0,32,0h0A32,32,0,0,0,9.37,54.63,31.82,31.82,0,0,0,32,64ZM10.79,10.79A29.78,29.78,0,0,1,32,2h0A30,30,0,0,1,53.21,53.21,29.78,29.78,0,0,1,32,62h0A30,30,0,0,1,2,32,29.78,29.78,0,0,1,10.79,10.79Z"/></svg>